<svg width="177" height="62" viewBox="0 0 177 62" fill="none" xmlns="http://www.w3.org/2000/svg">
<path d="M26.4953 61.1417L0.0171589 45.8691L0 15.2897L26.461 0L50.9828 14.1571L47.1218 20.8496L26.461 8.90613L7.72207 19.7513V41.3903L26.4953 52.2184L47.1561 40.2577L51 46.9674L26.4953 61.1417Z" fill="white"/>
<path d="M26.4781 47.1047L13.9855 39.9146L17.8465 33.2049L26.4781 38.1814L33.1534 34.3203V26.5811L26.4781 22.7201L17.8465 27.6965L13.9855 21.0212L26.4609 13.7968L40.8755 22.1195V38.782L26.4781 47.1047Z" fill="white"/>
<path d="M73.64 46.28C71.5867 46.28 69.7467 45.9467 68.12 45.28C66.4933 44.6133 65.1867 43.6267 64.2 42.32C63.24 41.0133 62.7333 39.44 62.68 37.6H69.96C70.0667 38.64 70.4267 39.44 71.04 40C71.6533 40.5333 72.4533 40.8 73.44 40.8C74.4533 40.8 75.2533 40.5733 75.84 40.12C76.4267 39.64 76.72 38.9867 76.72 38.16C76.72 37.4667 76.48 36.8933 76 36.44C75.5467 35.9867 74.9733 35.6133 74.28 35.32C73.6133 35.0267 72.6533 34.6933 71.4 34.32C69.5867 33.76 68.1067 33.2 66.96 32.64C65.8133 32.08 64.8267 31.2533 64 30.16C63.1733 29.0667 62.76 27.64 62.76 25.88C62.76 23.2667 63.7067 21.2267 65.6 19.76C67.4933 18.2667 69.96 17.52 73 17.52C76.0933 17.52 78.5867 18.2667 80.48 19.76C82.3733 21.2267 83.3867 23.28 83.52 25.92H76.12C76.0667 25.0133 75.7333 24.3067 75.12 23.8C74.5067 23.2667 73.72 23 72.76 23C71.9333 23 71.2667 23.2267 70.76 23.68C70.2533 24.1067 70 24.7333 70 25.56C70 26.4667 70.4267 27.1733 71.28 27.68C72.1333 28.1867 73.4667 28.7333 75.28 29.32C77.0933 29.9333 78.56 30.52 79.68 31.08C80.8267 31.64 81.8133 32.4533 82.64 33.52C83.4667 34.5867 83.88 35.96 83.88 37.64C83.88 39.24 83.4667 40.6933 82.64 42C81.84 43.3067 80.6667 44.3467 79.12 45.12C77.5733 45.8933 75.7467 46.28 73.64 46.28ZM94.9294 17.92V46H88.0894V17.92H94.9294ZM114.206 46L108.366 35.4H106.726V46H99.8863V17.92H111.366C113.58 17.92 115.46 18.3067 117.006 19.08C118.58 19.8533 119.753 20.92 120.526 22.28C121.3 23.6133 121.686 25.1067 121.686 26.76C121.686 28.6267 121.153 30.2933 120.086 31.76C119.046 33.2267 117.5 34.2667 115.446 34.88L121.926 46H114.206ZM106.726 30.56H110.966C112.22 30.56 113.153 30.2533 113.766 29.64C114.406 29.0267 114.726 28.16 114.726 27.04C114.726 25.9733 114.406 25.1333 113.766 24.52C113.153 23.9067 112.22 23.6 110.966 23.6H106.726V30.56ZM132.7 17.92V34.72C132.7 36.4 133.113 37.6933 133.94 38.6C134.767 39.5067 135.98 39.96 137.58 39.96C139.18 39.96 140.407 39.5067 141.26 38.6C142.113 37.6933 142.54 36.4 142.54 34.72V17.92H149.38V34.68C149.38 37.1867 148.847 39.3067 147.78 41.04C146.713 42.7733 145.273 44.08 143.46 44.96C141.673 45.84 139.673 46.28 137.46 46.28C135.247 46.28 133.26 45.8533 131.5 45C129.767 44.12 128.393 42.8133 127.38 41.08C126.367 39.32 125.86 37.1867 125.86 34.68V17.92H132.7ZM164.343 46.28C162.29 46.28 160.45 45.9467 158.823 45.28C157.196 44.6133 155.89 43.6267 154.903 42.32C153.943 41.0133 153.436 39.44 153.383 37.6H160.663C160.77 38.64 161.13 39.44 161.743 40C162.356 40.5333 163.156 40.8 164.143 40.8C165.156 40.8 165.956 40.5733 166.543 40.12C167.13 39.64 167.423 38.9867 167.423 38.16C167.423 37.4667 167.183 36.8933 166.703 36.44C166.25 35.9867 165.676 35.6133 164.983 35.32C164.316 35.0267 163.356 34.6933 162.103 34.32C160.29 33.76 158.81 33.2 157.663 32.64C156.516 32.08 155.53 31.2533 154.703 30.16C153.876 29.0667 153.463 27.64 153.463 25.88C153.463 23.2667 154.41 21.2267 156.303 19.76C158.196 18.2667 160.663 17.52 163.703 17.52C166.796 17.52 169.29 18.2667 171.183 19.76C173.076 21.2267 174.09 23.28 174.223 25.92H166.823C166.77 25.0133 166.436 24.3067 165.823 23.8C165.21 23.2667 164.423 23 163.463 23C162.636 23 161.97 23.2267 161.463 23.68C160.956 24.1067 160.703 24.7333 160.703 25.56C160.703 26.4667 161.13 27.1733 161.983 27.68C162.836 28.1867 164.17 28.7333 165.983 29.32C167.796 29.9333 169.263 30.52 170.383 31.08C171.53 31.64 172.516 32.4533 173.343 33.52C174.17 34.5867 174.583 35.96 174.583 37.64C174.583 39.24 174.17 40.6933 173.343 42C172.543 43.3067 171.37 44.3467 169.823 45.12C168.276 45.8933 166.45 46.28 164.343 46.28Z" fill="white"/>
</svg>
