<svg width="265" height="280" viewBox="0 0 265 280" fill="none" xmlns="http://www.w3.org/2000/svg">
<rect width="265" height="280" rx="18.2776" fill="url(#paint0_linear)"/>
<mask id="mask0" mask-type="alpha" maskUnits="userSpaceOnUse" x="0" y="0" width="265" height="280">
<rect width="265" height="280" rx="18.2776" fill="url(#paint1_linear)"/>
</mask>
<g mask="url(#mask0)">
<g opacity="0.8" filter="url(#filter0_dd)">
<path d="M328.448 150H91.4188C86.6295 150 82.747 154.374 82.747 159.77V329.113C82.747 334.508 86.6295 338.882 91.4188 338.882H328.448C333.237 338.882 337.119 334.508 337.119 329.113V159.77C337.119 154.374 333.237 150 328.448 150Z" fill="white"/>
</g>
<path opacity="0.8" d="M160.07 171.982H310.381V172.796H160.07V171.982Z" fill="#DDD6FE"/>
<path opacity="0.8" fill-rule="evenodd" clip-rule="evenodd" d="M115.989 156.513C114.255 156.513 113.171 157.5 112.737 159.474C113.387 158.487 114.146 158.117 115.013 158.364C115.508 158.505 115.862 158.913 116.253 159.365C116.891 160.102 117.629 160.954 119.241 160.954C120.975 160.954 122.059 159.968 122.493 157.993C121.842 158.981 121.084 159.35 120.216 159.104C119.721 158.963 119.368 158.554 118.976 158.102C118.339 157.366 117.601 156.513 115.989 156.513ZM112.737 160.955C111.003 160.955 109.919 161.942 109.485 163.915C110.135 162.929 110.894 162.559 111.761 162.806C112.256 162.947 112.61 163.354 113.001 163.807C113.639 164.544 114.377 165.396 115.989 165.396C117.723 165.396 118.807 164.41 119.241 162.435C118.59 163.422 117.832 163.792 116.964 163.546C116.469 163.405 116.116 162.996 115.724 162.544C115.087 161.808 114.349 160.955 112.737 160.955Z" fill="#A78BFA"/>
<path opacity="0.8" d="M134.055 185.008H118.879C118.081 185.008 117.434 185.737 117.434 186.637C117.434 187.536 118.081 188.265 118.879 188.265H134.055C134.853 188.265 135.5 187.536 135.5 186.637C135.5 185.737 134.853 185.008 134.055 185.008Z" fill="#C4B5FD"/>
<path opacity="0.8" d="M198.371 184.194H162.961C161.365 184.194 160.07 185.652 160.07 187.451C160.07 189.249 161.365 190.707 162.961 190.707H198.371C199.967 190.707 201.261 189.249 201.261 187.451C201.261 185.652 199.967 184.194 198.371 184.194Z" fill="#A78BFA"/>
<path opacity="0.8" d="M246.066 193.964H161.516C160.718 193.964 160.07 194.693 160.07 195.592C160.07 196.492 160.718 197.221 161.516 197.221H246.066C246.864 197.221 247.511 196.492 247.511 195.592C247.511 194.693 246.864 193.964 246.066 193.964Z" fill="#C4B5FD"/>
<path opacity="0.8" d="M204.152 158.956H171.633C170.835 158.956 170.188 159.685 170.188 160.584C170.188 161.483 170.835 162.212 171.633 162.212H204.152C204.95 162.212 205.597 161.483 205.597 160.584C205.597 159.685 204.95 158.956 204.152 158.956Z" fill="#DDD6FE"/>
<path opacity="0.8" d="M251.847 206.99H161.516C160.718 206.99 160.07 207.719 160.07 208.619C160.07 209.518 160.718 210.247 161.516 210.247H251.847C252.645 210.247 253.292 209.518 253.292 208.619C253.292 207.719 252.645 206.99 251.847 206.99Z" fill="#DDD6FE"/>
<path opacity="0.8" d="M257.628 255.025H161.516C160.718 255.025 160.07 255.754 160.07 256.653C160.07 257.553 160.718 258.282 161.516 258.282H257.628C258.426 258.282 259.073 257.553 259.073 256.653C259.073 255.754 258.426 255.025 257.628 255.025Z" fill="#DDD6FE"/>
<path opacity="0.8" d="M257.628 261.538H161.516C160.718 261.538 160.07 262.267 160.07 263.167C160.07 264.066 160.718 264.795 161.516 264.795H257.628C258.426 264.795 259.073 264.066 259.073 263.167C259.073 262.267 258.426 261.538 257.628 261.538Z" fill="#DDD6FE"/>
<path opacity="0.8" d="M251.847 213.504H161.516C160.718 213.504 160.07 214.233 160.07 215.132C160.07 216.031 160.718 216.76 161.516 216.76H251.847C252.645 216.76 253.292 216.031 253.292 215.132C253.292 214.233 252.645 213.504 251.847 213.504Z" fill="#DDD6FE"/>
<path opacity="0.8" d="M246.066 220.017H161.516C160.718 220.017 160.07 220.746 160.07 221.645C160.07 222.544 160.718 223.273 161.516 223.273H246.066C246.864 223.273 247.511 222.544 247.511 221.645C247.511 220.746 246.864 220.017 246.066 220.017Z" fill="#DDD6FE"/>
<path opacity="0.8" d="M246.066 226.53H161.516C160.718 226.53 160.07 227.259 160.07 228.158C160.07 229.058 160.718 229.787 161.516 229.787H246.066C246.864 229.787 247.511 229.058 247.511 228.158C247.511 227.259 246.864 226.53 246.066 226.53Z" fill="#DDD6FE"/>
<path opacity="0.8" d="M251.847 233.043H161.516C160.718 233.043 160.07 233.772 160.07 234.671C160.07 235.571 160.718 236.3 161.516 236.3H251.847C252.645 236.3 253.292 235.571 253.292 234.671C253.292 233.772 252.645 233.043 251.847 233.043Z" fill="#DDD6FE"/>
<path opacity="0.8" d="M199.093 246.07H162.238C161.041 246.07 160.07 247.163 160.07 248.512C160.07 249.861 161.041 250.954 162.238 250.954H199.093C200.291 250.954 201.261 249.861 201.261 248.512C201.261 247.163 200.291 246.07 199.093 246.07Z" fill="#A78BFA"/>
<path opacity="0.8" d="M131.164 193.15H118.879C118.081 193.15 117.434 193.879 117.434 194.778C117.434 195.677 118.081 196.406 118.879 196.406H131.164C131.963 196.406 132.61 195.677 132.61 194.778C132.61 193.879 131.963 193.15 131.164 193.15Z" fill="#C4B5FD"/>
<path opacity="0.8" d="M128.997 201.291H118.879C118.081 201.291 117.434 202.02 117.434 202.92C117.434 203.819 118.081 204.548 118.879 204.548H128.997C129.795 204.548 130.442 203.819 130.442 202.92C130.442 202.02 129.795 201.291 128.997 201.291Z" fill="#C4B5FD"/>
<path opacity="0.8" d="M125.383 209.433H118.879C118.081 209.433 117.434 210.162 117.434 211.061C117.434 211.96 118.081 212.689 118.879 212.689H125.383C126.181 212.689 126.829 211.96 126.829 211.061C126.829 210.162 126.181 209.433 125.383 209.433Z" fill="#C4B5FD"/>
<path opacity="0.8" d="M129.719 217.574H118.879C118.081 217.574 117.434 218.303 117.434 219.203C117.434 220.102 118.081 220.831 118.879 220.831H129.719C130.517 220.831 131.164 220.102 131.164 219.203C131.164 218.303 130.517 217.574 129.719 217.574Z" fill="#C4B5FD"/>
<path opacity="0.8" d="M132.61 225.716H118.879C118.081 225.716 117.434 226.445 117.434 227.344C117.434 228.243 118.081 228.972 118.879 228.972H132.61C133.408 228.972 134.055 228.243 134.055 227.344C134.055 226.445 133.408 225.716 132.61 225.716Z" fill="#C4B5FD"/>
<path opacity="0.8" d="M125.022 241.185H110.569C109.97 241.185 109.485 241.731 109.485 242.406C109.485 243.08 109.97 243.627 110.569 243.627H125.022C125.621 243.627 126.106 243.08 126.106 242.406C126.106 241.731 125.621 241.185 125.022 241.185Z" fill="#A78BFA"/>
<path opacity="0.8" d="M121.047 247.698H110.93C110.132 247.698 109.485 248.427 109.485 249.326C109.485 250.225 110.132 250.954 110.93 250.954H121.047C121.846 250.954 122.493 250.225 122.493 249.326C122.493 248.427 121.846 247.698 121.047 247.698Z" fill="#DDD6FE"/>
<path opacity="0.8" d="M121.047 254.211H110.93C110.132 254.211 109.485 254.94 109.485 255.839C109.485 256.739 110.132 257.468 110.93 257.468H121.047C121.846 257.468 122.493 256.739 122.493 255.839C122.493 254.94 121.846 254.211 121.047 254.211Z" fill="#DDD6FE"/>
<path opacity="0.8" d="M123.215 260.724H110.93C110.132 260.724 109.485 261.453 109.485 262.352C109.485 263.252 110.132 263.981 110.93 263.981H123.215C124.014 263.981 124.661 263.252 124.661 262.352C124.661 261.453 124.014 260.724 123.215 260.724Z" fill="#DDD6FE"/>
<path opacity="0.8" d="M123.215 267.237H110.93C110.132 267.237 109.485 267.966 109.485 268.866C109.485 269.765 110.132 270.494 110.93 270.494H123.215C124.014 270.494 124.661 269.765 124.661 268.866C124.661 267.966 124.014 267.237 123.215 267.237Z" fill="#DDD6FE"/>
<path opacity="0.8" d="M129.719 273.751H110.93C110.132 273.751 109.485 274.48 109.485 275.379C109.485 276.278 110.132 277.007 110.93 277.007H129.719C130.517 277.007 131.165 276.278 131.165 275.379C131.165 274.48 130.517 273.751 129.719 273.751Z" fill="#DDD6FE"/>
<path opacity="0.8" d="M111.653 189.079C112.85 189.079 113.821 187.986 113.821 186.637C113.821 185.288 112.85 184.194 111.653 184.194C110.456 184.194 109.485 185.288 109.485 186.637C109.485 187.986 110.456 189.079 111.653 189.079Z" fill="#A78BFA"/>
<path opacity="0.8" d="M111.653 197.221C112.85 197.221 113.821 196.127 113.821 194.778C113.821 193.429 112.85 192.336 111.653 192.336C110.456 192.336 109.485 193.429 109.485 194.778C109.485 196.127 110.456 197.221 111.653 197.221Z" fill="#A78BFA"/>
<path opacity="0.8" d="M111.653 205.362C112.85 205.362 113.821 204.269 113.821 202.92C113.821 201.571 112.85 200.477 111.653 200.477C110.456 200.477 109.485 201.571 109.485 202.92C109.485 204.269 110.456 205.362 111.653 205.362Z" fill="#A78BFA"/>
<path opacity="0.8" d="M111.653 213.504C112.85 213.504 113.821 212.41 113.821 211.061C113.821 209.712 112.85 208.619 111.653 208.619C110.456 208.619 109.485 209.712 109.485 211.061C109.485 212.41 110.456 213.504 111.653 213.504Z" fill="#A78BFA"/>
<path opacity="0.8" d="M111.653 221.645C112.85 221.645 113.821 220.552 113.821 219.203C113.821 217.854 112.85 216.76 111.653 216.76C110.456 216.76 109.485 217.854 109.485 219.203C109.485 220.552 110.456 221.645 111.653 221.645Z" fill="#A78BFA"/>
<path opacity="0.8" d="M111.653 229.787C112.85 229.787 113.821 228.693 113.821 227.344C113.821 225.995 112.85 224.902 111.653 224.902C110.456 224.902 109.485 225.995 109.485 227.344C109.485 228.693 110.456 229.787 111.653 229.787Z" fill="#A78BFA"/>
<path opacity="0.8" d="M165.852 164.248L164.132 162.311L165.852 164.248ZM164.132 162.311C164.337 162.085 164.499 161.815 164.61 161.518C164.721 161.221 164.779 160.902 164.78 160.58C164.781 160.257 164.726 159.938 164.617 159.64C164.508 159.341 164.348 159.071 164.145 158.843C163.943 158.615 163.703 158.434 163.438 158.311C163.173 158.188 162.89 158.126 162.604 158.127C162.317 158.128 162.034 158.193 161.771 158.319C161.507 158.444 161.268 158.626 161.067 158.856C160.666 159.316 160.442 159.935 160.444 160.579C160.447 161.223 160.675 161.841 161.079 162.296C161.483 162.752 162.031 163.009 162.603 163.012C163.175 163.015 163.725 162.763 164.132 162.311V162.311Z" stroke="#C4B5FD" stroke-width="1.14235"/>
<path opacity="0.8" d="M252.57 269.68H162.961C161.365 269.68 160.07 271.138 160.07 272.936V285.149C160.07 286.947 161.365 288.405 162.961 288.405H252.57C254.166 288.405 255.46 286.947 255.46 285.149V272.936C255.46 271.138 254.166 269.68 252.57 269.68Z" fill="#A78BFA"/>
</g>
<defs>
<filter id="filter0_dd" x="65.6118" y="142.004" width="288.643" height="223.153" filterUnits="userSpaceOnUse" color-interpolation-filters="sRGB">
<feFlood flood-opacity="0" result="BackgroundImageFix"/>
<feColorMatrix in="SourceAlpha" type="matrix" values="0 0 0 0 0 0 0 0 0 0 0 0 0 0 0 0 0 0 127 0" result="hardAlpha"/>
<feOffset dy="3.42705"/>
<feGaussianBlur stdDeviation="3.42705"/>
<feColorMatrix type="matrix" values="0 0 0 0 0 0 0 0 0 0 0 0 0 0 0 0 0 0 0.05 0"/>
<feBlend mode="normal" in2="BackgroundImageFix" result="effect1_dropShadow"/>
<feColorMatrix in="SourceAlpha" type="matrix" values="0 0 0 0 0 0 0 0 0 0 0 0 0 0 0 0 0 0 127 0" result="hardAlpha"/>
<feOffset dy="9.13879"/>
<feGaussianBlur stdDeviation="8.56762"/>
<feColorMatrix type="matrix" values="0 0 0 0 0 0 0 0 0 0 0 0 0 0 0 0 0 0 0.1 0"/>
<feBlend mode="normal" in2="effect1_dropShadow" result="effect2_dropShadow"/>
<feBlend mode="normal" in="SourceGraphic" in2="effect2_dropShadow" result="shape"/>
</filter>
<linearGradient id="paint0_linear" x1="17.8923" y1="10.566" x2="208.504" y2="303.123" gradientUnits="userSpaceOnUse">
<stop stop-color="#A855F7"/>
<stop offset="1" stop-color="#6366F1"/>
</linearGradient>
<linearGradient id="paint1_linear" x1="17.8923" y1="10.566" x2="208.504" y2="303.123" gradientUnits="userSpaceOnUse">
<stop stop-color="#A855F7"/>
<stop offset="1" stop-color="#6366F1"/>
</linearGradient>
</defs>
</svg>
