<svg width="500" height="1024" viewBox="0 0 500 1024" fill="none" xmlns="http://www.w3.org/2000/svg">
<rect width="500" height="1024" fill="#015EFF"/>
<g clip-path="url(#clip0)">
<path d="M497.988 1002.84C498.206 1016.04 480.445 1025.26 479.952 1025.5C471.007 1029.96 433.433 1049.1 386.615 1025.43C372.555 1018.33 367.287 1010.32 367.004 1002.84V1023.46C367.335 1030.91 372.66 1038.86 386.607 1045.92C433.417 1069.58 470.999 1050.45 479.944 1045.97C480.429 1045.74 498.061 1036.59 497.98 1023.44V1002.84H497.988Z" fill="url(#paint0_linear)"/>
<path d="M499.984 1021.4C499.838 1018.46 499.164 1015.57 497.996 1012.87V1023.46C498.077 1036.57 480.445 1045.72 479.96 1046C471.015 1050.47 433.433 1069.61 386.623 1045.94C372.636 1038.83 367.343 1030.89 367.012 1023.44V1012.87C367.012 1012.87 365 1015.64 365 1020.67V1025.5C365.267 1033.92 370.713 1042.92 385.201 1050.92C433.449 1077.54 472.179 1056.02 481.358 1051C481.867 1050.71 500.17 1040.34 499.943 1025.5V1024.42C499.943 1024.42 499.984 1022.16 499.984 1021.4Z" fill="url(#paint1_linear)"/>
<g style="mix-blend-mode:multiply">
<path d="M479.952 1042.04C471.007 1046.5 433.425 1065.64 386.615 1041.97C372.636 1034.91 367.343 1026.96 367.012 1019.52V1023.44C367.343 1030.89 372.668 1038.83 386.615 1045.89C433.425 1069.56 471.007 1050.42 479.952 1045.95C480.437 1045.72 498.069 1036.56 497.988 1023.41V1019.54C498.069 1032.64 480.437 1041.8 479.952 1042.04Z" fill="#584B83"/>
</g>
<path d="M499.984 983.424C500.21 998.275 481.908 1008.64 481.399 1008.92C472.187 1013.94 433.458 1035.48 385.242 1008.84C370.729 1000.85 365.283 991.851 365 983.424V1005.42C365.004 1005.48 365.004 1005.55 365 1005.61V1006.63C365.364 1014.98 370.818 1023.89 385.201 1031.86C433.449 1058.49 472.171 1036.96 481.358 1031.94C481.859 1031.66 500.016 1021.38 499.943 1006.61V983.424H499.984Z" fill="url(#paint2_linear)"/>
<path d="M497.988 960.75C498.206 973.958 480.445 983.174 479.952 983.416C471.007 987.883 433.433 1007.02 386.615 983.351C372.555 976.244 367.287 968.243 367.004 960.75V981.379C367.335 988.825 372.66 996.777 386.607 1003.84C433.417 1027.49 470.999 1008.37 479.944 1003.89C480.429 1003.65 498.061 994.508 497.98 981.355V960.75H497.988Z" fill="url(#paint3_linear)"/>
<path d="M499.984 979.311C499.836 976.372 499.163 973.482 497.996 970.779V981.363C498.077 994.483 480.445 1003.63 479.96 1003.9C471.015 1008.38 433.433 1027.5 386.623 1003.84C372.644 996.786 367.351 988.833 367.02 981.388V970.763C367.02 970.763 365 973.548 365 978.562V983.392C365.267 991.819 370.713 1000.82 385.201 1008.81C433.449 1035.44 472.179 1013.91 481.358 1008.88C481.867 1008.61 500.17 998.242 499.943 983.392V982.353C499.943 982.353 499.984 980.076 499.984 979.311Z" fill="url(#paint4_linear)"/>
<g style="mix-blend-mode:multiply">
<path d="M479.952 999.949C471.007 1004.42 433.425 1023.55 386.615 999.884C372.636 992.825 367.343 984.881 367.012 977.435V981.355C367.343 988.801 372.668 996.753 386.615 1003.81C433.425 1027.47 471.007 1008.34 479.952 1003.87C480.437 1003.63 498.069 994.483 497.988 981.331V977.443C498.069 990.564 480.437 999.74 479.952 999.949Z" fill="#584B83"/>
</g>
<path d="M499.984 941.343C500.21 956.194 481.908 966.561 481.399 966.835C472.187 971.857 433.458 993.397 385.242 966.762C370.729 958.769 365.283 949.763 365 941.343V963.333C365.004 963.395 365.004 963.457 365 963.518V964.549C365.347 972.936 370.802 981.87 385.201 989.815C433.449 1016.44 472.171 994.91 481.358 989.887C481.859 989.614 500.016 979.319 499.943 964.565V941.343H499.984Z" fill="url(#paint5_linear)"/>
<path d="M497.988 918.669C498.206 931.869 480.445 941.094 479.952 941.327C471.007 945.802 433.433 964.935 386.615 941.271C372.555 934.171 367.287 926.155 367.004 918.669V939.299C367.335 946.752 372.66 954.697 386.607 961.756C433.417 985.42 470.999 966.279 479.944 961.82C480.429 961.571 498.061 952.427 497.98 939.283V918.669H497.988Z" fill="url(#paint6_linear)"/>
<path d="M499.984 937.23C499.837 934.293 499.164 931.407 497.996 928.706V939.299C498.077 952.411 480.445 961.554 479.96 961.836C471.015 966.295 433.433 985.436 386.623 961.772C372.636 954.664 367.343 946.728 367.012 939.275V928.706C367.012 928.706 365 931.467 365 936.482V941.311C365.283 949.763 370.729 958.769 385.201 966.738C433.449 993.365 472.179 971.833 481.358 966.811C481.867 966.537 500.17 956.17 499.943 941.319V940.257C499.943 940.257 499.984 937.995 499.984 937.23Z" fill="url(#paint7_linear)"/>
<g style="mix-blend-mode:multiply">
<path d="M479.952 957.884C471.007 962.351 433.425 981.484 386.615 957.828C372.636 950.753 367.343 942.8 367.012 935.347V939.275C367.343 946.728 372.668 954.673 386.615 961.732C433.425 985.396 471.007 966.255 479.952 961.796C480.437 961.546 498.069 952.403 497.988 939.258V935.347C498.069 948.483 480.437 957.627 479.952 957.884Z" fill="#584B83"/>
</g>
<path d="M499.984 897.516C500.21 912.366 481.908 922.734 481.399 923.007C472.187 928.03 433.458 949.569 385.242 922.935C370.729 914.958 365.283 905.951 365 897.516V919.514C365.004 919.576 365.004 919.637 365 919.699V920.721C365.347 929.092 370.802 938.035 385.201 945.979C433.449 972.606 472.171 951.083 481.358 946.052C481.859 945.778 500.016 935.483 499.943 920.729V897.516H499.984Z" fill="url(#paint8_linear)"/>
<path d="M497.988 874.857C498.206 888.058 480.445 897.274 479.952 897.516C471.007 901.983 433.433 921.116 386.615 897.451C372.555 890.352 367.287 882.343 367.004 874.857V895.479C367.335 902.933 372.66 910.877 386.607 917.936C433.417 941.609 470.999 922.468 479.944 918.001C480.429 917.759 498.061 908.607 497.98 895.463V874.857H497.988Z" fill="url(#paint9_linear)"/>
<path d="M499.984 893.419C499.838 890.479 499.164 887.59 497.996 884.887V895.479C498.077 908.591 480.445 917.743 479.96 918.017C471.015 922.484 433.433 941.625 386.623 917.952C372.636 910.853 367.343 902.909 367.012 895.455V884.887C367.012 884.887 365 887.648 365 892.686V897.516C365.267 905.943 370.713 914.95 385.201 922.935C433.449 949.561 472.179 928.03 481.358 923.007C481.867 922.734 500.17 912.366 499.943 897.516V896.453C499.943 896.453 499.984 894.175 499.984 893.419Z" fill="url(#paint10_linear)"/>
<g style="mix-blend-mode:multiply">
<path d="M479.952 914.049C471.007 918.524 433.425 937.657 386.615 913.984C372.636 906.933 367.343 898.981 367.012 891.535V895.455C367.343 902.909 372.668 910.853 386.615 917.912C433.425 941.585 471.007 922.444 479.952 917.977C480.437 917.735 498.069 908.583 497.988 895.439V891.543C498.069 904.663 480.437 913.807 479.952 914.049Z" fill="#584B83"/>
</g>
<path d="M499.984 853.133C500.21 867.984 481.908 878.351 481.399 878.624C472.187 883.647 433.458 905.187 385.242 878.56C370.729 870.567 365.283 861.56 365 853.133V875.131C365.004 875.193 365.004 875.255 365 875.316V876.339C365.364 884.693 370.818 893.628 385.201 901.54C433.449 928.167 472.171 906.635 481.358 901.613C481.859 901.339 500.016 891.052 499.943 876.29V853.133H499.984Z" fill="url(#paint11_linear)"/>
<path d="M384.773 824.881C368.717 833.034 349.559 858.88 385.201 878.56C433.45 905.178 472.179 883.647 481.359 878.624C482.167 878.198 526.957 852.819 474.579 824.293C440.197 805.547 407.649 813.282 384.773 824.881Z" fill="url(#paint12_linear)"/>
</g>
<g clip-path="url(#clip1)">
<path d="M313.765 1107.63L245.529 1059.64V904.033L313.765 952.025V1107.63Z" fill="url(#paint13_linear)"/>
<path d="M313.765 1107.63L382 1059.64V904.033L313.765 952.025V1107.63Z" fill="url(#paint14_linear)"/>
<path d="M313.765 856L245.529 904.074L313.765 952.066L382 904.074L313.765 856Z" fill="url(#paint15_linear)"/>
<g style="mix-blend-mode:multiply">
<g style="mix-blend-mode:multiply">
<path d="M319.41 965.881L382 921.839V914.631L319.41 958.663V965.881Z" fill="#473E7D"/>
</g>
<g style="mix-blend-mode:multiply">
<path d="M319.41 984.4L382 940.368V933.15L319.41 977.192V984.4Z" fill="#473E7D"/>
</g>
<g style="mix-blend-mode:multiply">
<path d="M319.41 1002.93L382 958.897V951.679L319.41 995.711V1002.93Z" fill="#473E7D"/>
</g>
<g style="mix-blend-mode:multiply">
<path d="M319.41 1021.45L382 977.416V970.198L319.41 1014.23V1021.45Z" fill="#473E7D"/>
</g>
<g style="mix-blend-mode:multiply">
<path d="M319.41 1039.97L382 995.945V988.727L319.41 1032.76V1039.97Z" fill="#473E7D"/>
</g>
<g style="mix-blend-mode:multiply">
<path d="M319.41 1058.5L382 1014.46V1007.25L319.41 1051.28V1058.5Z" fill="#473E7D"/>
</g>
</g>
<path d="M313.765 939.564L267.401 906.945V901.284L313.765 933.893V939.564Z" fill="url(#paint16_linear)"/>
<path d="M313.765 939.564L360.128 906.945V901.284L313.765 933.893V939.564Z" fill="url(#paint17_linear)"/>
<path d="M313.765 868.655L267.401 901.304L313.765 933.913L360.128 901.304L313.765 868.655Z" fill="url(#paint18_linear)"/>
<g style="mix-blend-mode:multiply">
<g style="mix-blend-mode:multiply">
<path d="M315.674 884.628L288.4 903.86L291.243 905.855L318.517 886.685L315.674 884.628Z" fill="#473E7D"/>
</g>
<g style="mix-blend-mode:multiply">
<path d="M320.822 888.324L293.558 907.545L296.391 909.551L323.665 890.36L320.822 888.324Z" fill="#473E7D"/>
</g>
<g style="mix-blend-mode:multiply">
<path d="M325.98 892.009L298.716 911.22L301.549 913.236L328.823 894.056L325.98 892.009Z" fill="#473E7D"/>
</g>
<g style="mix-blend-mode:multiply">
<path d="M331.138 895.685L303.854 914.906L306.697 916.912L333.971 897.741L331.138 895.685Z" fill="#473E7D"/>
</g>
<g style="mix-blend-mode:multiply">
<path d="M336.286 899.39L309.002 918.591L311.846 920.607L339.13 901.416L336.286 899.39Z" fill="#473E7D"/>
</g>
</g>
</g>
<defs>
<linearGradient id="paint0_linear" x1="366.988" y1="1030.17" x2="497.996" y2="1030.17" gradientUnits="userSpaceOnUse">
<stop stop-color="#3D3D98"/>
<stop offset="1" stop-color="#7171B4"/>
</linearGradient>
<linearGradient id="paint1_linear" x1="365" y1="1038.42" x2="499.992" y2="1038.42" gradientUnits="userSpaceOnUse">
<stop stop-color="#9590C6"/>
<stop offset="1" stop-color="#B2AED6"/>
</linearGradient>
<linearGradient id="paint2_linear" x1="365" y1="16352.3" x2="22915.7" y2="16352.3" gradientUnits="userSpaceOnUse">
<stop stop-color="#5A54A4"/>
<stop offset="1" stop-color="#9590C6"/>
</linearGradient>
<linearGradient id="paint3_linear" x1="689.229" y1="12855.8" x2="21926" y2="12855.8" gradientUnits="userSpaceOnUse">
<stop stop-color="#3D3D98"/>
<stop offset="1" stop-color="#7171B4"/>
</linearGradient>
<linearGradient id="paint4_linear" x1="365" y1="12610.7" x2="22915.4" y2="12610.7" gradientUnits="userSpaceOnUse">
<stop stop-color="#9590C6"/>
<stop offset="1" stop-color="#B2AED6"/>
</linearGradient>
<linearGradient id="paint5_linear" x1="365" y1="13101.8" x2="22915.7" y2="13101.8" gradientUnits="userSpaceOnUse">
<stop stop-color="#5A54A4"/>
<stop offset="1" stop-color="#9590C6"/>
</linearGradient>
<linearGradient id="paint6_linear" x1="689.229" y1="9955.13" x2="21926" y2="9955.13" gradientUnits="userSpaceOnUse">
<stop stop-color="#3D3D98"/>
<stop offset="1" stop-color="#7171B4"/>
</linearGradient>
<linearGradient id="paint7_linear" x1="365" y1="9894.18" x2="22915.4" y2="9894.18" gradientUnits="userSpaceOnUse">
<stop stop-color="#9590C6"/>
<stop offset="1" stop-color="#B2AED6"/>
</linearGradient>
<linearGradient id="paint8_linear" x1="365" y1="9707.66" x2="22915.7" y2="9707.66" gradientUnits="userSpaceOnUse">
<stop stop-color="#5A54A4"/>
<stop offset="1" stop-color="#9590C6"/>
</linearGradient>
<linearGradient id="paint9_linear" x1="689.229" y1="6933.89" x2="21926" y2="6933.89" gradientUnits="userSpaceOnUse">
<stop stop-color="#3D3D98"/>
<stop offset="1" stop-color="#7171B4"/>
</linearGradient>
<linearGradient id="paint10_linear" x1="365" y1="7071.23" x2="22915.4" y2="7071.23" gradientUnits="userSpaceOnUse">
<stop stop-color="#9590C6"/>
<stop offset="1" stop-color="#B2AED6"/>
</linearGradient>
<linearGradient id="paint11_linear" x1="365" y1="6265.36" x2="22915.7" y2="6265.36" gradientUnits="userSpaceOnUse">
<stop stop-color="#5A54A4"/>
<stop offset="1" stop-color="#9590C6"/>
</linearGradient>
<linearGradient id="paint12_linear" x1="365" y1="852.304" x2="500" y2="852.304" gradientUnits="userSpaceOnUse">
<stop stop-color="#7877B8"/>
<stop offset="1" stop-color="#A4A7D3"/>
</linearGradient>
<linearGradient id="paint13_linear" x1="230.055" y1="1032.37" x2="328.216" y2="980.104" gradientUnits="userSpaceOnUse">
<stop stop-color="#3D3D98"/>
<stop offset="1" stop-color="#7171B4"/>
</linearGradient>
<linearGradient id="paint14_linear" x1="347.882" y1="1110.26" x2="347.882" y2="978.912" gradientUnits="userSpaceOnUse">
<stop stop-color="#867EBB"/>
<stop offset="1" stop-color="#BAB7DB"/>
</linearGradient>
<linearGradient id="paint15_linear" x1="246.778" y1="905.611" x2="377.33" y2="902.552" gradientUnits="userSpaceOnUse">
<stop stop-color="#706BB1"/>
<stop offset="1" stop-color="#A4A7D3"/>
</linearGradient>
<linearGradient id="paint16_linear" x1="1747.32" y1="3577.8" x2="2781.71" y2="2909.15" gradientUnits="userSpaceOnUse">
<stop stop-color="#3D3D98"/>
<stop offset="1" stop-color="#7171B4"/>
</linearGradient>
<linearGradient id="paint17_linear" x1="4487.87" y1="4061.65" x2="4487.87" y2="3133.37" gradientUnits="userSpaceOnUse">
<stop stop-color="#867EBB"/>
<stop offset="1" stop-color="#BAB7DB"/>
</linearGradient>
<linearGradient id="paint18_linear" x1="2342.63" y1="3839.88" x2="10437.8" y2="3569.93" gradientUnits="userSpaceOnUse">
<stop stop-color="#867EBB"/>
<stop offset="1" stop-color="#BAB7DB"/>
</linearGradient>
<clipPath id="clip0">
<rect width="135" height="274" fill="white" transform="translate(365 813)"/>
</clipPath>
<clipPath id="clip1">
<rect width="136.471" height="251.618" fill="white" transform="translate(245.529 856)"/>
</clipPath>
</defs>
</svg>
